<svg xmlns="http://www.w3.org/2000/svg" viewBox="0 0 24 24">
  <path fill="#d4a849" d="M7.421052631578948 22.0V6.0H5.421052631578948V4.578947368421055H7.421052631578948V2.0H9.263157894736842V4.578947368421055H14.131578947368421V6.0H9.263157894736842V8.394736842105264Q9.263157894736842 8.973684210526317 9.223684210526315 9.447368421052634Q9.18421052631579 9.921052631578949 9.131578947368421 10.342105263157896H9.289473684210527Q9.947368421052632 9.289473684210527 11.105263157894736 8.723684210526317Q12.263157894736842 8.157894736842106 13.710526315789474 8.157894736842106Q16.263157894736842 8.157894736842106 17.42105263157895 9.434210526315791Q18.578947368421055 10.710526315789474 18.578947368421055 13.105263157894738Q18.578947368421055 14.342105263157896 17.789473684210527 16.157894736842106Q16.973684210526315 17.973684210526315 16.973684210526315 18.789473684210527Q16.973684210526315 19.605263157894736 17.289473684210527 20.513157894736842Q17.605263157894736 21.42105263157895 17.973684210526315 22.0H15.973684210526315Q15.605263157894736 21.42105263157895 15.328947368421051 20.473684210526315Q15.052631578947368 19.526315789473685 15.052631578947368 18.68421052631579Q15.052631578947368 17.657894736842106 15.842105263157894 15.842105263157894Q16.657894736842103 13.947368421052632 16.657894736842103 13.105263157894738Q16.657894736842103 11.31578947368421 15.842105263157894 10.539473684210527Q15.026315789473683 9.763157894736842 13.394736842105264 9.763157894736842Q11.31578947368421 9.763157894736842 10.289473684210527 11.06578947368421Q9.263157894736842 12.368421052631579 9.263157894736842 15.210526315789474V22.0Z"/>
</svg>
